<?xml version="1.0" encoding="iso-8859-1"?>
<!-- Generator: Adobe Illustrator 19.0.0, SVG Export Plug-In . SVG Version: 6.00 Build 0)  -->
<svg version="1.1" id="Layer_1" xmlns="http://www.w3.org/2000/svg" xmlns:xlink="http://www.w3.org/1999/xlink" x="0px" y="0px"
	 viewBox="0 0 512 512" style="enable-background:new 0 0 512 512;" xml:space="preserve">
<polygon style="fill:#FF0F4D;" points="356.7,85.27 290.857,85.27 269.959,279.924 290.857,461.892 356.7,461.892 "/>
<polygon style="fill:#FF4F67;" points="225.014,85.27 204.116,279.924 225.014,461.892 290.857,461.892 290.857,85.27 "/>
<polygon style="fill:#003DA8;" points="102.68,92.482 51.34,92.482 30.442,277.188 51.34,461.892 102.68,461.892 123.578,277.188 
	"/>
<rect y="92.482" style="fill:#2F91ED;" width="51.336" height="369.413"/>
<polygon style="fill:#D5681E;" points="225.014,50.104 163.846,50.104 142.948,258.09 163.846,461.892 225.014,461.892 
	225.014,222.901 214.565,207.235 225.014,191.557 "/>
<polygon style="fill:#FF9933;" points="102.68,50.104 102.68,191.557 113.129,207.235 102.68,222.901 102.68,461.892 
	163.846,461.892 163.846,50.104 "/>
<g>
	<rect x="140.131" y="90.549" style="fill:#983300;" width="47.428" height="31.347"/>
	<rect x="140.131" y="135.438" style="fill:#983300;" width="47.428" height="31.347"/>
</g>
<polygon style="fill:#663300;" points="225.014,191.555 163.846,191.555 142.948,207.229 163.846,222.902 225.014,222.902 "/>
<rect x="102.682" y="191.56" style="fill:#983300;" width="61.168" height="31.347"/>
<polygon style="fill:#FFBA00;" points="67.013,139.902 51.34,139.902 40.891,273.581 51.34,414.474 67.013,414.474 "/>
<rect x="35.662" y="139.9" style="fill:#FDE09C;" width="15.673" height="274.568"/>
<g>
	<polygon style="fill:#FFBA00;" points="324.771,345.688 290.857,345.688 269.959,361.362 290.857,377.035 324.771,377.035 	"/>
	<polygon style="fill:#FFBA00;" points="324.771,390.582 290.857,390.582 269.959,406.256 290.857,421.929 324.771,421.929 	"/>
</g>
<g>
	<rect x="256.94" y="345.692" style="fill:#FDE09C;" width="33.915" height="31.347"/>
	<rect x="256.94" y="390.581" style="fill:#FDE09C;" width="33.915" height="31.347"/>
</g>
<polygon style="fill:#FF8E00;" points="447.144,114.286 408.337,122.005 395.915,139.902 407.188,297.583 454.828,436.077 
	473.191,448.058 512,440.338 "/>
<polygon style="fill:#FFBA00;" points="338.783,135.84 403.639,461.892 442.447,454.173 454.828,436.077 395.915,139.902 
	377.591,128.121 "/>
<rect x="259.164" y="272.418" transform="matrix(-0.1951 -0.9808 0.9808 -0.1951 225.8253 761.5127)" style="fill:#FDE09C;" width="332.45" height="31.347"/>
<g>
</g>
<g>
</g>
<g>
</g>
<g>
</g>
<g>
</g>
<g>
</g>
<g>
</g>
<g>
</g>
<g>
</g>
<g>
</g>
<g>
</g>
<g>
</g>
<g>
</g>
<g>
</g>
<g>
</g>
</svg>
