<?xml version="1.0" encoding="iso-8859-1"?>
<!-- Generator: Adobe Illustrator 19.0.0, SVG Export Plug-In . SVG Version: 6.00 Build 0)  -->
<svg version="1.1" id="Layer_1" xmlns="http://www.w3.org/2000/svg" xmlns:xlink="http://www.w3.org/1999/xlink" x="0px" y="0px"
	 viewBox="0 0 392.598 392.598" style="enable-background:new 0 0 392.598 392.598;" xml:space="preserve">
<path style="fill:#56ACE0;" d="M120.469,49.455c0,15.257-12.412,27.669-27.669,27.669c-15.192,0-27.669-12.412-27.669-27.669
	S77.543,21.786,92.8,21.786C108.057,21.786,120.469,34.198,120.469,49.455z"/>
<path style="fill:#FFFFFF;" d="M62.287,265.503h61.026v105.244h-19.588v-42.861c0-6.012-4.848-10.925-10.925-10.925
	c-6.012,0-10.925,4.849-10.925,10.925v42.861H62.287V265.503z"/>
<path style="fill:#FFC10D;" d="M144.129,181.657v62.061H41.471v-62.061c0-25.277,20.558-45.834,45.834-45.834h10.99
	C123.572,135.822,144.129,156.38,144.129,181.657z"/>
<path style="fill:#FFFFFF;" d="M272.129,49.455c0-15.257,12.412-27.669,27.669-27.669c15.257,0,27.669,12.412,27.669,27.669
	s-12.412,27.669-27.669,27.669C284.606,77.123,272.129,64.711,272.129,49.455z"/>
<path style="fill:#FFC10D;" d="M269.156,265.503h61.026v105.244h-19.523v-42.861c0-6.012-4.848-10.925-10.925-10.925
	c-6.077,0-10.925,4.849-10.925,10.925v42.861h-19.653L269.156,265.503L269.156,265.503z"/>
<path style="fill:#56ACE0;" d="M351.127,181.657v62.061H248.469v-62.061c0-25.277,20.558-45.834,45.834-45.834h10.99
	C330.57,135.822,351.127,156.38,351.127,181.657z"/>
<g>
	<path style="fill:#194F82;" d="M98.295,113.972h-10.99c-37.301,0-67.685,30.384-67.685,67.685v72.921
		c0,6.012,4.848,10.925,10.925,10.925h9.891v116.17c0,6.012,4.848,10.925,10.925,10.925h82.877c6.012,0,10.925-4.848,10.925-10.925
		v-116.17h9.891c6.012,0,10.925-4.848,10.925-10.925v-72.921C165.98,144.356,135.661,113.972,98.295,113.972z M144.129,243.717
		H41.471v-62.061c0-25.277,20.558-45.834,45.834-45.834h10.99c25.277,0,45.834,20.558,45.834,45.834L144.129,243.717
		L144.129,243.717z M123.378,370.747h-19.653v-42.861c0-6.012-4.848-10.925-10.925-10.925c-6.012,0-10.925,4.849-10.925,10.925
		v42.861H62.287V265.503h61.026L123.378,370.747L123.378,370.747z"/>
	<path style="fill:#194F82;" d="M92.8,0C65.519,0,43.281,22.174,43.281,49.455s22.174,49.455,49.455,49.455
		s49.455-22.174,49.455-49.455S120.081,0,92.8,0z M92.8,77.123c-15.192,0-27.669-12.412-27.669-27.669S77.543,21.786,92.8,21.786
		s27.669,12.412,27.669,27.669S108.057,77.123,92.8,77.123z"/>
	<path style="fill:#194F82;" d="M305.228,113.972h-10.99c-37.301,0-67.685,30.384-67.685,67.685v72.921
		c0,6.012,4.848,10.925,10.925,10.925h9.891v116.17c0,6.012,4.848,10.925,10.925,10.925h82.941c6.012,0,10.925-4.848,10.925-10.925
		v-116.17h9.891c6.012,0,10.925-4.848,10.925-10.925v-72.921C372.913,144.356,342.594,113.972,305.228,113.972z M351.127,243.717
		H248.469v-62.061c0-25.277,20.558-45.834,45.834-45.834h10.99c25.277,0,45.834,20.558,45.834,45.834V243.717L351.127,243.717z
		 M330.311,370.747h-19.653v-42.861c0-6.012-4.848-10.925-10.925-10.925c-6.077,0-10.925,4.849-10.925,10.925v42.861h-19.653
		V265.503h61.026v105.244H330.311z"/>
	<path style="fill:#194F82;" d="M299.798,0c-27.281,0-49.455,22.174-49.455,49.455s22.174,49.455,49.455,49.455
		s49.455-22.174,49.455-49.455S327.014,0,299.798,0z M299.798,77.123c-15.192,0-27.669-12.412-27.669-27.669
		s12.412-27.669,27.669-27.669s27.669,12.412,27.669,27.669S315.055,77.123,299.798,77.123z"/>
</g>
<g>
</g>
<g>
</g>
<g>
</g>
<g>
</g>
<g>
</g>
<g>
</g>
<g>
</g>
<g>
</g>
<g>
</g>
<g>
</g>
<g>
</g>
<g>
</g>
<g>
</g>
<g>
</g>
<g>
</g>
</svg>
