<svg width="471" height="471" viewBox="0 0 471 471" fill="none" xmlns="http://www.w3.org/2000/svg">
<rect width="471" height="471" fill="#E5E5E5"/>
<g clip-path="url(#clip0_0_1)">
<path d="M386.491 2.19699L250.912 137.776C247.984 140.706 247.984 145.454 250.912 148.383C253.842 151.312 258.59 151.312 261.519 148.383L391.795 18.107L416.544 42.856L356.979 102.421C354.051 105.351 354.051 110.099 356.979 113.028C359.909 115.957 364.657 115.957 367.586 113.028L427.151 53.463L451.9 78.212L321.623 208.487C318.695 211.417 318.695 216.165 321.623 219.094C324.553 222.023 329.301 222.023 332.23 219.094L467.81 83.515C469.274 82.05 470.006 80.13 470.006 78.211C470.006 76.292 469.274 74.372 467.81 72.907L397.099 2.19598C394.169 -0.732016 389.421 -0.732009 386.491 2.19699Z" fill="black"/>
<path d="M60.374 448.846C60.399 448.836 60.425 448.825 60.451 448.814L130.563 419.944C131.417 419.592 132.193 419.081 132.863 418.447C132.895 418.417 132.929 418.389 132.961 418.358C132.978 418.342 132.995 418.328 133.012 418.312L219.094 332.231C220.558 330.766 221.29 328.847 221.29 326.927C221.29 325.008 220.558 323.088 219.094 321.623C216.164 318.694 211.416 318.694 208.487 321.623L130.296 399.815C128.277 396.372 125.807 393.163 122.932 390.287C117.052 384.408 109.92 380.313 102.363 378.253L183.74 296.875C185.204 295.41 185.936 293.49 185.936 291.571C185.936 289.652 185.204 287.732 183.74 286.267C180.81 283.338 176.062 283.338 173.133 286.267L91.754 367.647C89.693 360.089 85.599 352.957 79.719 347.076C76.843 344.201 73.635 341.73 70.192 339.712L148.383 261.52C151.311 258.589 151.31 253.841 148.383 250.913C145.453 247.984 140.705 247.984 137.776 250.913L51.695 336.995C51.681 337.009 51.67 337.024 51.657 337.037C51.59 337.106 51.527 337.179 51.463 337.251C50.875 337.896 50.398 338.634 50.064 339.443L21.189 409.566C21.18 409.585 21.172 409.604 21.165 409.623L0.56501 459.651C-0.58599 462.451 0.0570097 465.669 2.19701 467.81C4.33901 469.951 7.55601 470.594 10.356 469.442L60.374 448.846ZM77.896 383.426C77.473 385.834 78.25 388.3 79.979 390.028C81.708 391.757 84.172 392.535 86.581 392.112C95.614 390.525 105.237 393.808 112.324 400.896C114.691 403.262 116.644 405.95 118.14 408.838L59.355 433.043L36.964 410.651L61.169 351.867C64.058 353.363 66.745 355.316 69.111 357.683C76.199 364.77 79.482 374.396 77.896 383.426ZM30.776 425.679L44.328 439.231L21.289 448.718L30.776 425.679Z" fill="black"/>
<path d="M296.875 183.739L332.23 148.384C333.694 146.919 334.426 144.999 334.426 143.08C334.426 141.161 333.694 139.241 332.23 137.776C329.3 134.847 324.552 134.847 321.623 137.776L286.268 173.131C283.34 176.061 283.34 180.809 286.268 183.738C289.198 186.668 293.946 186.668 296.875 183.739Z" fill="black"/>
<path d="M132.961 51.649C132.93 51.618 132.896 51.59 132.862 51.56C132.193 50.926 131.417 50.415 130.563 50.064L60.459 21.196C60.429 21.184 60.398 21.171 60.367 21.158L10.355 0.563995C7.555 -0.588005 4.337 0.0549839 2.196 2.19598C0.0560026 4.33798 -0.586997 7.55398 0.564003 10.355L21.162 60.377C21.172 60.401 21.182 60.425 21.191 60.449L50.063 130.564C50.396 131.373 50.874 132.111 51.461 132.756C51.525 132.828 51.589 132.901 51.655 132.97C51.669 132.983 51.679 132.998 51.693 133.012L386.491 467.81C387.899 469.217 389.806 470.007 391.795 470.007C393.784 470.007 395.691 469.217 397.099 467.811L467.81 397.1C469.216 395.693 470.006 393.786 470.006 391.796C470.006 389.806 469.216 387.9 467.81 386.492L133.012 51.695C132.995 51.679 132.978 51.665 132.961 51.649ZM112.323 69.112C105.236 76.2 95.613 79.483 86.58 77.896C84.172 77.473 81.708 78.25 79.978 79.98C78.249 81.709 77.473 84.172 77.895 86.582C79.488 95.609 76.199 105.236 69.111 112.324C66.746 114.69 64.057 116.644 61.169 118.14L36.964 59.356L59.355 36.964L118.14 61.17C116.644 64.058 114.691 66.746 112.323 69.112ZM44.328 30.776L30.775 44.328L21.289 21.289L44.328 30.776ZM451.9 391.796L427.152 416.545L326.637 316.031C323.707 313.102 318.959 313.102 316.03 316.031C313.102 318.961 313.102 323.709 316.03 326.638L416.544 427.152L391.795 451.901L70.191 130.295C73.635 128.277 76.843 125.806 79.719 122.931C85.599 117.05 89.695 109.919 91.754 102.361L287.745 298.353C290.675 301.282 295.423 301.282 298.352 298.353C299.816 296.888 300.548 294.969 300.548 293.049C300.548 291.13 299.816 289.21 298.352 287.745L102.361 91.753C109.919 89.693 117.05 85.598 122.93 79.719C125.806 76.843 128.276 73.635 130.294 70.191L451.9 391.796Z" fill="black"/>
</g>
<defs>
<clipPath id="clip0_0_1">
<rect width="470.007" height="470.007" fill="white" transform="translate(0 470.007) rotate(-90)"/>
</clipPath>
</defs>
</svg>
