<?xml version="1.0" encoding="iso-8859-1"?>
<!-- Generator: Adobe Illustrator 19.0.0, SVG Export Plug-In . SVG Version: 6.00 Build 0)  -->
<svg version="1.1" id="Capa_1" xmlns="http://www.w3.org/2000/svg" xmlns:xlink="http://www.w3.org/1999/xlink" x="0px" y="0px"
	 viewBox="0 0 470.007 470.007" style="enable-background:new 0 0 470.007 470.007;" xml:space="preserve">
<g>
	<path d="M467.81,386.491L332.231,250.912c-2.93-2.928-7.678-2.928-10.607,0c-2.929,2.93-2.929,7.678,0,10.607L451.9,391.795
		l-24.749,24.749l-59.565-59.565c-2.93-2.928-7.678-2.928-10.607,0c-2.929,2.93-2.929,7.678,0,10.607l59.565,59.565L391.795,451.9
		L261.52,321.623c-2.93-2.928-7.678-2.928-10.607,0c-2.929,2.93-2.929,7.678,0,10.607L386.492,467.81
		c1.465,1.464,3.385,2.196,5.304,2.196s3.839-0.732,5.304-2.196l70.711-70.711C470.739,394.169,470.739,389.421,467.81,386.491z"/>
	<path d="M21.161,60.374c0.01,0.025,0.021,0.051,0.032,0.077l28.87,70.112c0.352,0.854,0.863,1.63,1.497,2.3
		c0.03,0.032,0.058,0.066,0.089,0.098c0.016,0.017,0.03,0.034,0.046,0.051l86.081,86.082c1.465,1.464,3.384,2.196,5.304,2.196
		c1.919,0,3.839-0.732,5.304-2.196c2.929-2.93,2.929-7.678,0-10.607l-78.192-78.191c3.443-2.019,6.652-4.489,9.528-7.364
		c5.879-5.88,9.974-13.012,12.034-20.569l81.378,81.377c1.465,1.464,3.385,2.196,5.304,2.196s3.839-0.732,5.304-2.196
		c2.929-2.93,2.929-7.678,0-10.607L102.36,91.754c7.558-2.061,14.69-6.155,20.571-12.035c2.875-2.876,5.346-6.084,7.364-9.527
		l78.192,78.191c2.931,2.928,7.679,2.927,10.607,0c2.929-2.93,2.929-7.678,0-10.607l-86.082-86.081
		c-0.014-0.014-0.029-0.025-0.042-0.038c-0.069-0.067-0.142-0.13-0.214-0.194c-0.645-0.588-1.383-1.065-2.192-1.399L60.441,21.189
		c-0.019-0.009-0.038-0.017-0.057-0.024l-50.028-20.6c-2.8-1.151-6.018-0.508-8.159,1.632c-2.141,2.142-2.784,5.359-1.632,8.159
		L21.161,60.374z M86.581,77.896c-2.408-0.423-4.874,0.354-6.602,2.083c-1.729,1.729-2.507,4.193-2.084,6.602
		c1.587,9.033-1.696,18.656-8.784,25.743c-2.366,2.367-5.054,4.32-7.942,5.816L36.964,59.355l22.392-22.391l58.784,24.205
		c-1.496,2.889-3.449,5.576-5.816,7.942C105.237,76.199,95.611,79.482,86.581,77.896z M44.328,30.776L30.776,44.328l-9.487-23.039
		L44.328,30.776z"/>
	<path d="M286.268,296.875l35.355,35.355c1.465,1.464,3.385,2.196,5.304,2.196s3.839-0.732,5.304-2.196
		c2.929-2.93,2.929-7.678,0-10.607l-35.355-35.355c-2.93-2.928-7.678-2.928-10.607,0
		C283.339,289.198,283.339,293.946,286.268,296.875z"/>
	<path d="M418.358,132.961c0.031-0.031,0.059-0.065,0.089-0.099c0.634-0.669,1.145-1.445,1.496-2.299l28.868-70.104
		c0.012-0.03,0.025-0.061,0.038-0.092l20.594-50.012c1.152-2.8,0.509-6.018-1.632-8.159c-2.142-2.14-5.358-2.783-8.159-1.632
		L409.63,21.162c-0.024,0.01-0.048,0.02-0.072,0.029l-70.115,28.872c-0.809,0.333-1.547,0.811-2.192,1.398
		c-0.072,0.064-0.145,0.128-0.214,0.194c-0.013,0.014-0.028,0.024-0.042,0.038L2.197,386.491C0.79,387.899,0,389.806,0,391.795
		s0.79,3.896,2.196,5.304l70.711,70.711c1.407,1.406,3.314,2.196,5.304,2.196s3.896-0.79,5.304-2.196l334.797-334.798
		C418.328,132.995,418.342,132.978,418.358,132.961z M400.895,112.323c-7.088-7.087-10.371-16.71-8.784-25.743
		c0.423-2.408-0.354-4.872-2.084-6.602c-1.729-1.729-4.192-2.505-6.602-2.083c-9.027,1.593-18.654-1.696-25.742-8.784
		c-2.366-2.365-4.32-5.054-5.816-7.942l58.784-24.205l22.392,22.391l-24.206,58.785
		C405.949,116.644,403.261,114.691,400.895,112.323z M439.231,44.328l-13.552-13.553l23.039-9.486L439.231,44.328z M78.211,451.9
		l-24.749-24.748l100.514-100.515c2.929-2.93,2.929-7.678,0-10.607c-2.93-2.928-7.678-2.928-10.607,0L42.855,416.544l-24.749-24.749
		L339.712,70.191c2.018,3.444,4.489,6.652,7.364,9.528c5.881,5.88,13.012,9.976,20.57,12.035L171.654,287.745
		c-2.929,2.93-2.929,7.678,0,10.607c1.465,1.464,3.384,2.196,5.304,2.196c1.919,0,3.839-0.732,5.304-2.196l195.992-195.991
		c2.06,7.558,6.155,14.689,12.034,20.569c2.876,2.876,6.084,5.346,9.528,7.364L78.211,451.9z"/>
</g>
<g>
</g>
<g>
</g>
<g>
</g>
<g>
</g>
<g>
</g>
<g>
</g>
<g>
</g>
<g>
</g>
<g>
</g>
<g>
</g>
<g>
</g>
<g>
</g>
<g>
</g>
<g>
</g>
<g>
</g>
</svg>
