<svg width="471" height="471" viewBox="0 0 471 471" fill="none" xmlns="http://www.w3.org/2000/svg">
<rect width="471" height="471" fill="#E5E5E5"/>
<g clip-path="url(#clip0_0_1)">
<path d="M83.5151 467.809L219.094 332.23C222.022 329.3 222.022 324.552 219.094 321.623C216.164 318.694 211.416 318.694 208.487 321.623L78.2111 451.899L53.4621 427.15L113.027 367.585C115.955 364.655 115.955 359.907 113.027 356.978C110.097 354.049 105.349 354.049 102.42 356.978L42.8551 416.543L18.1061 391.794L148.383 261.519C151.311 258.589 151.311 253.841 148.383 250.912C145.453 247.983 140.705 247.983 137.776 250.912L2.19608 386.491C0.732075 387.956 6.10352e-05 389.876 6.10352e-05 391.795C6.10352e-05 393.714 0.732075 395.634 2.19608 397.099L72.9071 467.81C75.8371 470.738 80.5851 470.738 83.5151 467.809Z" fill="black"/>
<path d="M409.632 21.1603C409.607 21.1703 409.581 21.1813 409.555 21.1923L339.443 50.0623C338.589 50.4143 337.813 50.9253 337.143 51.5593C337.111 51.5893 337.077 51.6173 337.045 51.6483C337.028 51.6643 337.011 51.6783 336.994 51.6943L250.912 137.775C249.448 139.24 248.716 141.159 248.716 143.079C248.716 144.998 249.448 146.918 250.912 148.383C253.842 151.312 258.59 151.312 261.519 148.383L339.71 70.1913C341.729 73.6343 344.199 76.8433 347.074 79.7193C352.954 85.5983 360.086 89.6933 367.643 91.7533L286.266 173.131C284.802 174.596 284.07 176.516 284.07 178.435C284.07 180.354 284.802 182.274 286.266 183.739C289.196 186.668 293.944 186.668 296.873 183.739L378.252 102.359C380.313 109.917 384.407 117.049 390.287 122.93C393.163 125.805 396.371 128.276 399.814 130.294L321.623 208.486C318.695 211.417 318.696 216.165 321.623 219.093C324.553 222.022 329.301 222.022 332.23 219.093L418.311 133.011C418.325 132.997 418.336 132.982 418.349 132.969C418.416 132.9 418.479 132.827 418.543 132.755C419.131 132.11 419.608 131.372 419.942 130.563L448.817 60.4403C448.826 60.4213 448.834 60.4023 448.841 60.3833L469.441 10.3553C470.592 7.55527 469.949 4.33727 467.809 2.19627C465.667 0.055269 462.45 -0.587731 459.65 0.564269L409.632 21.1603ZM392.11 86.5803C392.533 84.1723 391.756 81.7063 390.027 79.9783C388.298 78.2493 385.834 77.4713 383.425 77.8943C374.392 79.4813 364.769 76.1983 357.682 69.1103C355.315 66.7443 353.362 64.0563 351.866 61.1683L410.651 36.9633L433.042 59.3553L408.837 118.139C405.948 116.643 403.261 114.69 400.895 112.323C393.807 105.236 390.524 95.6103 392.11 86.5803ZM439.23 44.3273L425.678 30.7753L448.717 21.2883L439.23 44.3273Z" fill="black"/>
<path d="M173.131 286.267L137.776 321.622C136.312 323.087 135.58 325.007 135.58 326.926C135.58 328.845 136.312 330.765 137.776 332.23C140.706 335.159 145.454 335.159 148.383 332.23L183.738 296.875C186.666 293.945 186.666 289.197 183.738 286.268C180.808 283.338 176.06 283.338 173.131 286.267Z" fill="black"/>
<path d="M337.045 418.357C337.076 418.388 337.11 418.416 337.144 418.446C337.813 419.08 338.589 419.591 339.443 419.942L409.547 448.81C409.577 448.822 409.608 448.835 409.639 448.848L459.651 469.442C462.451 470.594 465.669 469.951 467.81 467.81C469.95 465.668 470.593 462.452 469.442 459.651L448.844 409.629C448.834 409.605 448.824 409.581 448.815 409.557L419.943 339.442C419.61 338.633 419.132 337.895 418.545 337.25C418.481 337.178 418.417 337.105 418.351 337.036C418.337 337.023 418.327 337.008 418.313 336.994L83.5151 2.19627C82.1071 0.789268 80.2001 -0.000732422 78.2111 -0.000732422C76.2221 -0.000732422 74.3151 0.789268 72.9071 2.19527L2.19608 72.9063C0.790075 74.3133 6.10352e-05 76.2203 6.10352e-05 78.2103C6.10352e-05 80.2003 0.790075 82.1063 2.19608 83.5143L336.994 418.311C337.011 418.327 337.028 418.341 337.045 418.357ZM357.683 400.894C364.77 393.806 374.393 390.523 383.426 392.11C385.834 392.533 388.298 391.756 390.028 390.026C391.757 388.297 392.533 385.834 392.111 383.424C390.518 374.397 393.807 364.77 400.895 357.682C403.26 355.316 405.949 353.362 408.837 351.866L433.042 410.65L410.651 433.042L351.866 408.836C353.362 405.948 355.315 403.26 357.683 400.894ZM425.678 439.23L439.231 425.678L448.717 448.717L425.678 439.23ZM18.1061 78.2103L42.8541 53.4613L143.369 153.975C146.299 156.904 151.047 156.904 153.976 153.975C156.904 151.045 156.904 146.297 153.976 143.368L53.4621 42.8543L78.2111 18.1053L399.815 339.711C396.371 341.729 393.163 344.2 390.287 347.075C384.407 352.956 380.311 360.087 378.252 367.645L182.261 171.653C179.331 168.724 174.583 168.724 171.654 171.653C170.19 173.118 169.458 175.037 169.458 176.957C169.458 178.876 170.19 180.796 171.654 182.261L367.645 378.253C360.087 380.313 352.956 384.408 347.076 390.287C344.2 393.163 341.73 396.371 339.712 399.815L18.1061 78.2103Z" fill="black"/>
</g>
<defs>
<clipPath id="clip0_0_1">
<rect width="470.007" height="470.007" fill="white" transform="translate(0 470.007) rotate(-90)"/>
</clipPath>
</defs>
</svg>
